<?xml version="1.0" encoding="iso-8859-1"?>
<!-- Generator: Adobe Illustrator 19.0.0, SVG Export Plug-In . SVG Version: 6.00 Build 0)  -->
<!-- License: CC0. Made by SVG Repo: https://www.svgrepo.com/svg/276586/cash-register -->
<svg version="1.1" id="Layer_1" xmlns="http://www.w3.org/2000/svg" xmlns:xlink="http://www.w3.org/1999/xlink" x="0px" y="0px"
	 viewBox="0 0 511.984 511.984" style="enable-background:new 0 0 511.984 511.984;" xml:space="preserve">
<rect x="149.332" y="130.89" style="fill:#434A54;" width="21.327" height="45.553"/>
<rect x="85.332" y="53.34" style="fill:#CCD1D9;" width="149.32" height="85.33"/>
<path style="fill:#CCD1D9;" d="M468.36,384.037c0.531,5.828-3.844,10.609-9.719,10.609H53.334c-5.867,0-10.234-4.781-9.703-10.609
	l19.398-213.416c0.531-5.844,5.765-10.625,11.632-10.625h362.67c5.858,0,11.093,4.781,11.624,10.625L468.36,384.037z"/>
<g>
	<circle style="fill:#434A54;" cx="127.992" cy="96" r="10.664"/>
	<circle style="fill:#434A54;" cx="159.992" cy="96" r="10.664"/>
	<circle style="fill:#434A54;" cx="191.992" cy="96" r="10.664"/>
</g>
<path style="fill:#E6E9ED;" d="M511.984,447.988c0,5.891-4.781,10.656-10.655,10.656H10.663C4.772,458.644,0,453.878,0,447.988
	v-85.342c0-5.874,4.772-10.655,10.663-10.655h490.666c5.874,0,10.655,4.781,10.655,10.655L511.984,447.988L511.984,447.988z"/>
<g>
	<path style="fill:#434A54;" d="M309.334,245.33c-5.906,0-10.687,4.773-10.687,10.664c0,5.891,4.78,10.664,10.687,10.664
		c5.875,0,10.656-4.773,10.656-10.664C319.99,250.103,315.209,245.33,309.334,245.33z"/>
	<path style="fill:#434A54;" d="M351.989,245.33c-5.891,0-10.656,4.773-10.656,10.664c0,5.891,4.766,10.664,10.656,10.664
		s10.656-4.773,10.656-10.664C362.645,250.103,357.88,245.33,351.989,245.33z"/>
	<path style="fill:#434A54;" d="M394.643,266.658c5.906,0,10.688-4.773,10.688-10.664c0-5.891-4.781-10.664-10.688-10.664
		c-5.875,0-10.655,4.773-10.655,10.664C383.988,261.885,388.768,266.658,394.643,266.658z"/>
	<path style="fill:#434A54;" d="M309.334,277.337c-5.906,0-10.687,4.766-10.687,10.656s4.78,10.655,10.687,10.655
		c5.875,0,10.656-4.765,10.656-10.655S315.209,277.337,309.334,277.337z"/>
	<path style="fill:#434A54;" d="M351.989,277.337c-5.891,0-10.656,4.766-10.656,10.656s4.766,10.655,10.656,10.655
		s10.656-4.765,10.656-10.655S357.88,277.337,351.989,277.337z"/>
	<path style="fill:#434A54;" d="M394.643,277.337c-5.875,0-10.655,4.766-10.655,10.656s4.78,10.655,10.655,10.655
		c5.906,0,10.688-4.765,10.688-10.655S400.55,277.337,394.643,277.337z"/>
	<path style="fill:#434A54;" d="M309.334,309.336c-5.906,0-10.687,4.766-10.687,10.656s4.78,10.656,10.687,10.656
		c5.875,0,10.656-4.766,10.656-10.656S315.209,309.336,309.334,309.336z"/>
	<path style="fill:#434A54;" d="M266.655,245.33c-5.891,0-10.663,4.773-10.663,10.664c0,5.891,4.772,10.664,10.663,10.664
		c5.898,0,10.68-4.773,10.68-10.664C277.335,250.103,272.554,245.33,266.655,245.33z"/>
	<path style="fill:#434A54;" d="M266.655,277.337c-5.891,0-10.663,4.766-10.663,10.656s4.772,10.655,10.663,10.655
		c5.898,0,10.68-4.765,10.68-10.655S272.554,277.337,266.655,277.337z"/>
	<path style="fill:#434A54;" d="M266.655,309.336c-5.891,0-10.663,4.766-10.663,10.656s4.772,10.656,10.663,10.656
		c5.898,0,10.68-4.766,10.68-10.656S272.554,309.336,266.655,309.336z"/>
	<path style="fill:#434A54;" d="M351.989,309.336c-5.891,0-10.656,4.766-10.656,10.656s4.766,10.656,10.656,10.656
		s10.656-4.766,10.656-10.656S357.88,309.336,351.989,309.336z"/>
	<path style="fill:#434A54;" d="M394.643,309.336c-5.875,0-10.655,4.766-10.655,10.656s4.78,10.656,10.655,10.656
		c5.906,0,10.688-4.766,10.688-10.656S400.55,309.336,394.643,309.336z"/>
</g>
<path style="fill:#434A54;" d="M394.643,202.659H266.655c-5.891,0-10.663,4.781-10.663,10.671s4.772,10.664,10.663,10.664h127.988
	c5.906,0,10.688-4.773,10.688-10.664S400.55,202.659,394.643,202.659z"/>
<path style="fill:#434A54;" d="M202.657,202.659h-85.325c-5.891,0-10.672,4.781-10.672,10.671s4.781,10.664,10.672,10.664h85.325
	c5.891,0,10.672-4.773,10.672-10.664S208.548,202.659,202.657,202.659z"/>
<path style="fill:#434A54;" d="M117.332,213.331v85.317c0,5.906,4.773,10.688,10.664,10.688c5.891,0,10.663-4.781,10.663-10.688
	c0,5.906,4.781,10.688,10.672,10.688s10.664-4.781,10.664-10.688c0,5.906,4.773,10.688,10.663,10.688
	c5.891,0,10.672-4.781,10.672-10.688c0,5.906,4.773,10.688,10.664,10.688s10.663-4.781,10.663-10.688v-85.317L117.332,213.331
	L117.332,213.331z"/>
<path style="fill:#434A54;" d="M298.647,394.646L298.647,394.646L298.647,394.646h-85.318l0,0c-5.898,0-10.672,4.781-10.672,10.688
	c0,5.874,4.773,10.655,10.672,10.655l0,0h85.318l0,0l0,0c5.905,0,10.687-4.781,10.687-10.655
	C309.334,399.428,304.553,394.646,298.647,394.646z"/>
</svg>
